<?xml version="1.0" standalone="no"?>
<!DOCTYPE svg PUBLIC "-//W3C//DTD SVG 20010904//EN"
 "http://www.w3.org/TR/2001/REC-SVG-20010904/DTD/svg10.dtd">
<svg version="1.0" xmlns="http://www.w3.org/2000/svg"
 width="600.000000pt" height="600.000000pt" viewBox="0 0 600.000000 600.000000"
 preserveAspectRatio="xMidYMid meet">

<g transform="translate(0.000000,600.000000) scale(0.100000,-0.100000)"
fill="#000000" stroke="none">
<path d="M2934 4946 c-44 -20 -1543 -884 -1582 -913 -18 -13 -41 -42 -52 -63
-20 -38 -20 -60 -20 -967 0 -885 1 -930 19 -969 10 -23 34 -53 52 -66 19 -14
187 -113 374 -221 187 -107 535 -308 774 -446 463 -267 487 -278 559 -249 20
8 204 111 407 228 1014 586 1181 683 1199 698 10 10 27 35 37 57 18 38 19 89
19 965 0 876 -1 927 -19 965 -10 22 -27 47 -37 57 -10 9 -219 132 -464 273
-245 142 -593 343 -773 447 -180 104 -343 196 -362 204 -42 17 -90 17 -131 0z
m-4 -423 l0 -198 -512 -295 c-281 -162 -517 -296 -523 -298 -17 -4 -348 190
-338 198 4 5 114 69 243 143 129 75 433 250 675 391 242 140 443 255 448 255
4 1 7 -88 7 -196z m303 109 c84 -49 260 -151 392 -227 583 -335 811 -468 818
-475 6 -5 -278 -179 -325 -198 -8 -4 -193 98 -353 193 -38 23 -198 115 -355
205 -157 90 -297 172 -312 182 l-28 19 0 195 c0 107 2 194 5 194 3 0 74 -40
158 -88z m0 -570 c122 -70 354 -204 515 -297 l292 -169 0 -596 0 -596 -157
-91 c-87 -50 -315 -182 -508 -294 -192 -111 -358 -204 -367 -207 -14 -3 -341
181 -925 522 l-123 71 0 596 0 595 288 166 c511 295 675 390 707 409 16 11 36
19 43 19 7 0 113 -58 235 -128z m-1570 -375 l157 -91 0 -596 0 -596 -158 -91
c-87 -51 -165 -95 -175 -99 -16 -6 -17 40 -17 786 0 750 1 792 18 786 9 -4 88
-48 175 -99z m2867 -687 c0 -434 -3 -790 -7 -790 -3 0 -82 44 -175 97 l-168
96 0 597 0 596 168 97 c92 53 170 97 175 97 4 0 7 -355 7 -790z m-2129 -1021
c277 -160 510 -295 517 -301 9 -8 12 -61 12 -204 0 -107 -3 -194 -8 -194 -4 0
-16 6 -27 14 -11 7 -110 65 -220 128 -179 102 -368 212 -953 550 -95 55 -170
103 -167 106 12 12 321 190 331 191 6 1 238 -130 515 -290z m1878 198 c89 -52
163 -98 163 -102 0 -5 -199 -124 -443 -265 -244 -140 -551 -317 -682 -393
-130 -75 -239 -137 -242 -137 -3 0 -5 87 -5 194 l0 195 28 19 c15 10 155 92
312 182 157 90 375 217 485 281 110 65 205 118 211 118 5 1 83 -41 173 -92z"/>
<path d="M3060 4051 c-14 -4 -30 -18 -37 -31 -12 -23 -10 -25 15 -30 16 -4 30
-1 35 7 11 18 47 16 47 -3 0 -9 -25 -39 -55 -68 -79 -75 -75 -86 30 -86 84 0
85 0 85 25 0 23 -4 25 -42 25 l-43 0 43 39 c46 43 54 77 24 104 -22 20 -68 28
-102 18z"/>
<path d="M2836 4031 c-43 -47 13 -138 69 -113 27 13 34 1 15 -28 -7 -12 -13
-12 -32 -2 -15 9 -32 10 -47 4 l-24 -8 28 -22 c36 -29 77 -28 112 2 25 22 28
31 28 84 0 79 -19 102 -85 102 -33 0 -52 -5 -64 -19z m84 -26 c16 -19 3 -55
-20 -55 -23 0 -36 36 -20 55 7 8 16 15 20 15 4 0 13 -7 20 -15z"/>
<path d="M2440 3308 c0 -402 6 -458 54 -564 58 -126 183 -212 341 -234 128
-18 353 -8 427 18 150 54 257 183 287 347 7 36 11 205 11 432 l0 373 -180 0
-180 0 0 -377 c-1 -396 -4 -427 -47 -475 -66 -75 -240 -75 -306 0 -43 48 -46
79 -47 475 l0 377 -180 0 -180 0 0 -372z"/>
<path d="M2370 2355 c0 -35 5 -75 11 -88 22 -49 106 -63 153 -26 24 19 26 26
26 100 l0 79 -30 0 -29 0 -3 -72 c-3 -63 -6 -73 -22 -76 -30 -6 -46 26 -46 90
0 58 0 58 -30 58 l-30 0 0 -65z"/>
<path d="M3100 2405 c0 -10 10 -15 30 -15 20 0 30 5 30 15 0 10 -10 15 -30 15
-20 0 -30 -5 -30 -15z"/>
<path d="M2602 2297 c3 -69 4 -72 28 -72 23 0 25 4 28 48 3 40 7 49 28 57 45
18 29 37 -31 38 l-56 0 3 -71z"/>
<path d="M2748 2359 c-10 -5 -18 -14 -18 -19 0 -16 38 -21 59 -8 16 10 23 10
32 1 9 -9 1 -15 -35 -24 -48 -12 -70 -36 -60 -63 8 -20 33 -26 103 -23 l55 2
-3 60 c-1 41 -7 64 -18 73 -20 14 -91 16 -115 1z m82 -78 c0 -5 -7 -14 -15
-21 -12 -10 -19 -10 -28 -1 -9 9 -9 14 3 21 19 12 40 13 40 1z"/>
<path d="M2920 2295 c0 -73 1 -75 25 -75 22 0 25 4 25 39 0 49 8 71 26 71 9 0
14 -17 16 -52 3 -49 5 -53 28 -53 23 0 25 4 28 52 2 29 -2 62 -8 73 -12 23
-59 27 -78 8 -9 -9 -12 -9 -12 0 0 7 -11 12 -25 12 -24 0 -25 -2 -25 -75z"/>
<path d="M3104 2356 c-3 -7 -4 -40 -2 -72 3 -55 5 -59 28 -59 24 0 25 3 28 73
3 71 3 72 -23 72 -14 0 -28 -6 -31 -14z"/>
<path d="M3193 2355 c-8 -23 3 -103 17 -120 14 -17 56 -20 65 -5 4 6 13 5 24
-2 37 -23 51 -4 51 72 l0 70 -30 0 c-29 0 -30 -1 -30 -49 0 -33 -5 -51 -14
-54 -21 -8 -26 2 -26 55 0 45 -2 48 -25 48 -14 0 -28 -7 -32 -15z"/>
<path d="M3382 2296 c3 -68 4 -71 28 -71 23 0 25 5 30 50 4 36 9 50 20 50 11
0 16 -14 18 -52 3 -49 5 -53 28 -53 22 0 24 4 24 43 0 84 36 90 42 7 3 -40 6
-45 28 -45 23 0 25 4 28 52 2 29 -2 62 -8 73 -12 22 -49 27 -80 10 -11 -6 -21
-6 -25 -1 -3 5 -35 9 -71 9 l-65 0 3 -72z"/>
<path d="M2808 2098 c-21 -21 -21 -22 -2 -29 12 -4 26 -1 36 9 16 13 18 13 24
-2 4 -12 -6 -28 -35 -55 -22 -21 -41 -43 -41 -49 0 -8 23 -12 65 -12 51 0 65
3 65 15 0 10 -10 15 -31 15 l-31 0 31 35 c37 42 39 59 9 79 -31 22 -64 20 -90
-6z"/>
<path d="M2955 2100 c-17 -18 -17 -20 -1 -26 10 -4 22 -2 29 5 15 15 27 14 27
-4 0 -8 -4 -15 -10 -15 -16 0 -12 -27 5 -34 17 -6 20 -32 6 -41 -6 -3 -16 1
-23 8 -7 8 -20 12 -30 9 -40 -10 -7 -42 44 -42 28 0 41 6 53 24 15 23 12 56
-6 56 -6 0 -5 8 1 19 13 25 13 27 -6 45 -21 22 -67 20 -89 -4z"/>
<path d="M3108 2109 c-12 -6 -18 -21 -17 -42 1 -18 -2 -41 -6 -53 -10 -31 18
-54 66 -54 32 0 41 5 51 24 6 14 7 33 3 43 -4 10 -7 30 -6 45 3 41 -49 62 -91
37z m52 -34 c0 -8 -7 -15 -15 -15 -8 0 -15 7 -15 15 0 8 7 15 15 15 8 0 15 -7
15 -15z m3 -59 c6 -16 -16 -40 -26 -29 -4 3 -7 15 -7 25 0 21 25 24 33 4z"/>
</g>
</svg>
